#tb 0: 1/1000
0,          0,          0,        0,    65520, b15c7e98ddd137237b062cb51667522f
0,         33,         33,        0,    65520, 00c594c68b19ef39a79a38e86853dc64
0,         66,         66,        0,    65520, e6742abe3d2c178af4298e121391c299
0,        100,        100,        0,    65520, efe5387b38c32f1c25c0fc9836921074
0,        133,        133,        0,    65520, e0e696f4c18af09a74e052903db1468c
0,        166,        166,        0,    65520, f1960270c6704ca47caed63161716025
0,        200,        200,        0,    65520, a1542d7749cfa447481acd7835db838a
0,        233,        233,        0,    65520, a91fb10a17d1d056667860cc43c81dae
0,        266,        266,        0,    65520, b673bfbb722522b4e7b5e9c5b85cc31f
0,        300,        300,        0,    65520, 8b4bb57d3cf609cbf9564a96a6ca6ade
